<?xml version="1.0" encoding="utf-8"?>
<!-- Generator: Adobe Illustrator 23.1.0, SVG Export Plug-In . SVG Version: 6.00 Build 0)  -->
<svg version="1.2" baseProfile="tiny" id="svg" xmlns="http://www.w3.org/2000/svg" xmlns:xlink="http://www.w3.org/1999/xlink"
	 x="0px" y="0px" viewBox="0 0 400 70.4" xml:space="preserve">
<path id="path2" fill-rule="evenodd" fill="#D81F27" d="M43.6,34.6c-0.1,0.3,0,0.4,0.3,0.3c0.1,0,0.2-0.2,0.1-0.3
	C43.9,34.3,43.7,34.3,43.6,34.6"/>
<path id="path3" fill-rule="evenodd" fill="#D81F27" d="M0,0"/>
<path id="path4" fill-rule="evenodd" fill="#D81F27" d="M0,0"/>
<path fill="#FFFFFF" d="M115.6,6.9h17.3l-18.7,57.2H96L77.3,6.9h17.4l7.8,29c1.6,6.4,2.5,10.9,2.7,13.5c0.2-1.8,0.5-4.1,1.1-6.8
	c0.5-2.7,1-4.9,1.4-6.5L115.6,6.9z"/>
<path fill="#FFFFFF" d="M182.3,64.2l-2.8-10.7h-18.6L158,64.2h-17l18.7-57.5h20.6l18.9,57.5H182.3z M176.2,40.8l-2.5-9.4
	c-0.6-2.1-1.3-4.8-2.1-8.1c-0.8-3.3-1.4-5.7-1.6-7.1c-0.2,1.3-0.7,3.5-1.4,6.6c-0.7,3.1-2.2,9.1-4.6,18H176.2z"/>
<path fill="#FFFFFF" d="M213.4,64.2V6.9h15.5v44.7h22v12.5H213.4z"/>
<path fill="#FFFFFF" d="M321.6,35.5c0,9.6-2.4,16.9-7.1,22c-4.7,5-11.6,7.5-20.7,7.5c-9,0-15.9-2.5-20.6-7.6c-4.8-5-7.2-12.4-7.2-22
	c0-9.5,2.4-16.8,7.1-21.8S284.8,6,293.8,6c9.1,0,16,2.5,20.7,7.5C319.2,18.5,321.6,25.8,321.6,35.5z M282.2,35.5
	c0,11.1,3.8,16.6,11.5,16.6c3.9,0,6.8-1.3,8.7-4c1.9-2.7,2.8-6.9,2.8-12.6c0-5.7-1-9.9-2.9-12.7c-1.9-2.7-4.8-4.1-8.6-4.1
	C286.1,18.7,282.2,24.3,282.2,35.5z"/>
<path fill="#FFFFFF" d="M394.4,64.2h-20.3l-20.9-40.3h-0.4c0.5,6.3,0.7,11.2,0.7,14.5v25.8h-13.7V6.9h20.2L381,46.7h0.2
	c-0.4-5.8-0.5-10.4-0.5-13.9V6.9h13.8V64.2z"/>
<g>
	<path fill="#D81F27" d="M67.6,15.6c-8-7.6-25.8-4.9-25.8-4.9c7.7,0.3,13.2,1.5,17.5,3.9C68,19.9,44.6,34.8,44,35.2l4.6-5.6
		L36.8,6.9L12.3,52.2L5.6,64.6c0.2,0.2,0.4,0.5,0.5,0.7l11.3-6.1l13.4-7.2C60,35.6,73.9,25.5,67.6,15.6z M30,42.2l6.3-11.4l3.5,6.3
		L30,42.2z"/>
	<path fill="#D81F27" stroke="#C1272D" stroke-width="0.25" stroke-miterlimit="10" d="M44,35.1C44,35.2,44,35.2,44,35.1"/>
	<path fill="#D81F27" d="M37.2,54.9c-0.5,0-1,0-1.5,0c0,0,0.6-0.2,1.5-0.6L37.2,54.9z"/>
</g>
<path fill="#FFFFFF" d="M69.8,64c-0.1-0.1-1-1-2.8-2.1c-1.8-1.2-4.6-2.7-8.5-3.9c-5.1-1.7-12.1-3-21.3-3l0-0.6
	c3.8-1.6,14-6.2,20.5-12.1l5.4,9.7L69.8,64z"/>
</svg>
